<?xml version="1.0" encoding="utf-8"?>
<!-- Generator: Adobe Illustrator 27.2.0, SVG Export Plug-In . SVG Version: 6.00 Build 0)  -->
<svg version="1.1" id="Layer_1" xmlns="http://www.w3.org/2000/svg" xmlns:xlink="http://www.w3.org/1999/xlink" x="0px" y="0px"
	 viewBox="0 0 50 50" style="enable-background:new 0 0 50 50;" xml:space="preserve">
<style type="text/css">
	.st0{fill:url(#SVGID_1_);}
	.st1{opacity:0.2;enable-background:new    ;}
	.st2{fill:url(#SVGID_00000182507930367294858720000003825842716684299192_);}
	.st3{fill:url(#SVGID_00000083070774036297157920000014067354802024454055_);}
	.st4{fill:url(#SVGID_00000119804059228563541730000007810425291845171344_);}
</style>
<g>
	<g>
		
			<linearGradient id="SVGID_1_" gradientUnits="userSpaceOnUse" x1="199.0754" y1="-0.6234" x2="230.5821" y2="36.9248" gradientTransform="matrix(0 1 -1 0 42.0602 -183.3484)">
			<stop  offset="1.487150e-03" style="stop-color:#275EFF"/>
			<stop  offset="0.9995" style="stop-color:#D40005"/>
		</linearGradient>
		<path class="st0" d="M35.3,13c4.1,2.4,4.1,8.5,0,10.9L12.5,37C8.3,39.4,3,36.3,3,31.5v10.1c0,6.1,6.7,10,12,6.9l29-16.7
			c5.3-3.1,5.3-10.8,0-13.9L35.3,13z"/>
		<path class="st1" d="M38.3,19.8c-0.4,1.6-1.3,3.2-3.1,4.1l-5.7,3.3c8.7,3.5,6.5,8.4,5.7,9.7l8.7-5.1c0.1,0,0.3-0.1,0.3-0.1
			l0.5-0.9l0.7-3.3l-2-4.7L38.3,19.8z"/>
		<path class="st1" d="M43.1,30.5c4.7-4,3.3-11.6-2.4-13.6l-2.8-1.1c1.3,2.8,0.4,6.4-2.5,8.1l-3.2,1.9l1.3,0.5
			c4.5,1.6,5.6,7.6,1.9,10.7l0,0L43.1,30.5z"/>
		
			<linearGradient id="SVGID_00000179646723584881779850000011477083822218928780_" gradientUnits="userSpaceOnUse" x1="183.6408" y1="16.4934" x2="220.42" y2="16.4934" gradientTransform="matrix(0 1 -1 0 42.0602 -183.3484)">
			<stop  offset="1.487150e-03" style="stop-color:#275EFF"/>
			<stop  offset="0.9995" style="stop-color:#D40005"/>
		</linearGradient>
		<path style="fill:url(#SVGID_00000179646723584881779850000011477083822218928780_);" d="M3,18.5c0-4.8,5.2-7.9,9.5-5.5l22.8,13.1
			c4.1,2.4,4.1,8.5,0,10.9l8.8-5.1c5.3-3.1,5.3-10.8,0-13.9L15,1.4C9.7-1.7,3,2.2,3,8.3C3,8.3,3,18.5,3,18.5z"/>
		<path class="st1" d="M13.7,1.4l-3.1,1.1l-2.9,4v6c1.5-0.4,3.2-0.3,4.8,0.7l5.6,3.2l0,0c-1.7-10.8,5.7-9.7,5.7-9.7l-8.7-5.1
			L13.7,1.4L13.7,1.4z"/>
		<path class="st1" d="M12.5,13l3.2,1.9l-0.3-1.5c-0.8-4.8,3.7-8.7,8.4-7.1l-9.5-3.5C8.6,0.7,2.6,5.6,3.7,11.8l0.5,2.9
			C5.9,12.3,9.5,11.2,12.5,13z"/>
		
			<linearGradient id="SVGID_00000047034461678372231580000009899488422815663780_" gradientUnits="userSpaceOnUse" x1="183.6408" y1="28.643" x2="221.3342" y2="28.643" gradientTransform="matrix(0 1 -1 0 42.0602 -183.3484)">
			<stop  offset="4.758888e-04" style="stop-color:#D40005"/>
			<stop  offset="0.9985" style="stop-color:#275EFF"/>
		</linearGradient>
		<path style="fill:url(#SVGID_00000047034461678372231580000009899488422815663780_);" d="M12.5,37.1l1.9-1.1V11.9
			c0-4.8,5.2-7.9,9.5-5.5L15,1.4C9.7-1.7,3,2.2,3,8.3v23.4C3,36.5,8.3,39.6,12.5,37.1z"/>
		<path class="st1" d="M12.5,37.1l1.9-1.1v-4.9C5.9,38.1,3,31,3,31v0.7C3,36.5,8.3,39.6,12.5,37.1z"/>
		<path class="st1" d="M3,31.7l0.4,2.1c1.3,3.5,5.6,5.3,9.1,3.2l1.9-1.1v-1.6l-1.1,0.9C9.5,38.5,3.8,36.3,3,31.7z"/>
	</g>
	
		<linearGradient id="SVGID_00000049195286572064194150000005840295340850228126_" gradientUnits="userSpaceOnUse" x1="18.0485" y1="82.0312" x2="23.8176" y2="76.2621" gradientTransform="matrix(1 0 0 1 0 -54)">
		<stop  offset="1.487150e-03" style="stop-color:#275EFF"/>
		<stop  offset="0.9995" style="stop-color:#D40005"/>
	</linearGradient>
	<path style="fill:url(#SVGID_00000049195286572064194150000005840295340850228126_);" d="M25.3,23.8L23.8,23l0,0l-2-1.1l0,0
		L20.5,21c-0.3-0.1-0.5-0.1-0.7-0.1l0,0c-0.1,0-0.3,0-0.3,0.1h-0.1c-0.1,0-0.1,0.1-0.1,0.1c-0.5,0.3-0.8,0.7-0.8,1.2v3.9v1.7
		c0,1.1,1.1,1.7,2,1.2l3.5-2l0,0l0,0l0,0l0,0l1.5-0.8c0.5-0.3,0.7-0.7,0.7-1.2C26,24.6,25.8,24.2,25.3,23.8z"/>
</g>
</svg>
