<?xml version="1.0" encoding="utf-8"?>
<!-- Generator: Adobe Illustrator 27.2.0, SVG Export Plug-In . SVG Version: 6.00 Build 0)  -->
<svg version="1.1" id="Layer_1" xmlns="http://www.w3.org/2000/svg" xmlns:xlink="http://www.w3.org/1999/xlink" x="0px" y="0px"
	 viewBox="0 0 136.6 40" style="enable-background:new 0 0 136.6 40;" xml:space="preserve">
<style type="text/css">
	.st0{fill:url(#SVGID_1_);}
	.st1{opacity:0.2;enable-background:new    ;}
	.st2{fill:url(#SVGID_00000009561027019829188730000000631148083071965091_);}
	.st3{fill:url(#SVGID_00000112612651368875020990000003175377049682863244_);}
	.st4{fill:url(#SVGID_00000172411831382483019840000009549499648297646011_);}
	.st5{fill:#F3F8FF;}
</style>
<g>
	<g>
		
			<linearGradient id="SVGID_1_" gradientUnits="userSpaceOnUse" x1="196.403" y1="42.8601" x2="220.0013" y2="14.7368" gradientTransform="matrix(0 1 1 0 -9.9398 -183.3484)">
			<stop  offset="1.487150e-03" style="stop-color:#275EFF"/>
			<stop  offset="0.9995" style="stop-color:#D40005"/>
		</linearGradient>
		<path class="st0" d="M27.4,11c3.1,1.8,3.1,6.4,0,8.2L10.3,29c-3.1,1.8-7.1-0.5-7.1-4.1v7.6c0,4.6,5,7.5,9,5.2l21.7-12.5
			c4-2.3,4-8.1,0-10.4L27.4,11z"/>
		<path class="st1" d="M29.6,16.1c-0.3,1.2-1,2.4-2.3,3.1L23,21.7c6.5,2.6,4.9,6.3,4.3,7.3l6.5-3.8c0.1,0,0.2-0.1,0.2-0.1l0.4-0.7
			l0.5-2.5l-1.5-3.5L29.6,16.1z"/>
		<path class="st1" d="M33.2,24.1c3.5-3,2.5-8.7-1.8-10.2l-2.1-0.8c1,2.1,0.3,4.8-1.9,6.1L25,20.6l1,0.4c3.4,1.2,4.2,5.7,1.4,8l0,0
			L33.2,24.1z"/>
		
			<linearGradient id="SVGID_00000038384770966013339300000009916892544044870023_" gradientUnits="userSpaceOnUse" x1="184.8426" y1="30.0398" x2="212.39" y2="30.0398" gradientTransform="matrix(0 1 1 0 -9.9398 -183.3484)">
			<stop  offset="1.487150e-03" style="stop-color:#275EFF"/>
			<stop  offset="0.9995" style="stop-color:#D40005"/>
		</linearGradient>
		<path style="fill:url(#SVGID_00000038384770966013339300000009916892544044870023_);" d="M3.2,15.1c0-3.6,3.9-5.9,7.1-4.1
			l17.1,9.8c3.1,1.8,3.1,6.4,0,8.2l6.6-3.8c4-2.3,4-8.1,0-10.4L12.2,2.3c-4-2.3-9,0.6-9,5.2C3.2,7.5,3.2,15.1,3.2,15.1z"/>
		<path class="st1" d="M11.2,2.3L8.9,3.1l-2.2,3v4.5c1.1-0.3,2.4-0.2,3.6,0.5l4.2,2.4l0,0c-1.3-8.1,4.3-7.3,4.3-7.3l-6.5-3.8
			L11.2,2.3L11.2,2.3z"/>
		<path class="st1" d="M10.3,11l2.4,1.4l-0.2-1.1c-0.6-3.6,2.8-6.5,6.3-5.3l-7.1-2.6c-4.3-1.6-8.8,2.1-8,6.7l0.4,2.2
			C5.4,10.5,8.1,9.7,10.3,11z"/>
		
			<linearGradient id="SVGID_00000116220201933036235450000017729495702720272783_" gradientUnits="userSpaceOnUse" x1="184.8426" y1="20.9398" x2="213.0746" y2="20.9398" gradientTransform="matrix(0 1 1 0 -9.9398 -183.3484)">
			<stop  offset="4.758888e-04" style="stop-color:#D40005"/>
			<stop  offset="0.9985" style="stop-color:#275EFF"/>
		</linearGradient>
		<path style="fill:url(#SVGID_00000116220201933036235450000017729495702720272783_);" d="M10.3,29.1l1.4-0.8V10.2
			c0-3.6,3.9-5.9,7.1-4.1l-6.6-3.8c-4-2.3-9,0.6-9,5.2V25C3.2,28.6,7.2,30.9,10.3,29.1z"/>
		<path class="st1" d="M10.3,29.1l1.4-0.8v-3.7c-6.3,5.2-8.5-0.1-8.5-0.1V25C3.2,28.6,7.2,30.9,10.3,29.1z"/>
		<path class="st1" d="M3.2,25l0.3,1.6c1,2.6,4.2,4,6.8,2.4l1.4-0.8V27l-0.8,0.7C8.1,30.1,3.8,28.5,3.2,25z"/>
	</g>
	
		<linearGradient id="SVGID_00000150822762968082896760000014793656333206774184_" gradientUnits="userSpaceOnUse" x1="14.3844" y1="19.8141" x2="18.7054" y2="24.1351" gradientTransform="matrix(1 0 0 -1 0 42)">
		<stop  offset="1.487150e-03" style="stop-color:#275EFF"/>
		<stop  offset="0.9995" style="stop-color:#D40005"/>
	</linearGradient>
	<path style="fill:url(#SVGID_00000150822762968082896760000014793656333206774184_);" d="M19.9,19.1l-1.1-0.6l0,0l-1.5-0.8l0,0
		L16.3,17c-0.2-0.1-0.4-0.1-0.5-0.1l0,0c-0.1,0-0.2,0-0.2,0.1h-0.1c-0.1,0-0.1,0.1-0.1,0.1c-0.4,0.2-0.6,0.5-0.6,0.9v2.9v1.3
		c0,0.8,0.8,1.3,1.5,0.9l2.6-1.5l0,0l0,0l0,0l0,0l1.1-0.6c0.4-0.2,0.5-0.5,0.5-0.9C20.4,19.7,20.3,19.4,19.9,19.1z"/>
</g>
<g>
	<path class="st5" d="M52.4,23.1c-1.1,3.1-4,3.8-6,3.8c-2.2,0-4.7-1.1-4.7-5.5c0-4.7,1.5-10.8,7.3-10.8c2,0,3.7,0.8,3.7,2.9
		c0,1.1-0.4,2-1.5,2c-0.3,0-0.8-0.1-1.2-0.6c0.5-0.2,0.9-1.2,0.9-1.8c0-0.3-0.1-1.5-1.5-1.5c-2.6,0-4.3,5.5-4.3,9.3
		c0,2.8,0.5,4,2.8,4c1.7,0,3.2-0.7,4-2.1L52.4,23.1z"/>
	<path class="st5" d="M56.3,16l-1.6,7.3c0,0.2-0.1,0.5-0.1,0.7c0,0.5,0.2,0.8,1.1,0.8s2-1.2,2.8-1.9h0.7c-1,1-3.4,3.9-5.1,3.9
		c-1.7,0-2.7-0.7-2.7-2.3c0-0.3,0-0.7,0.1-1.1l1.6-7.3L56.3,16L56.3,16z M55.3,11.4c0.9,0,1.7,0.8,1.7,1.7s-0.8,1.7-1.7,1.7
		s-1.7-0.8-1.7-1.7S54.4,11.4,55.3,11.4z"/>
	<path class="st5" d="M66.2,23.3c-0.1,0.2-0.1,0.5-0.1,0.7c0,0.5,0.2,0.8,1.1,0.8s1.2-0.7,2-1.4h0.7c-1,1-2.6,3.3-4.3,3.3
		c-1.7,0-2.7-0.7-2.7-2.3c0-0.3,0-0.7,0.1-1.1l0.8-3.9c0-0.2,0.1-0.4,0.1-0.6c0-0.8-0.4-1.3-1-1.3c-0.5,0-0.9,0.2-1.4,0.5l-1.8,8.7
		h-3.1L59,16h3.1l-0.3,1.2c0.9-0.6,1.9-1.2,2.8-1.2c1.2,0,2.5,1.2,2.5,2.7c0,0.2,0,0.3,0,0.5L66.2,23.3z"/>
	<path class="st5" d="M72.8,25.2c1.1,0,2.9-1.2,3.6-2.8h1c-1.2,2.2-3.3,4.4-6.1,4.4c-2.1,0-3.2-1.6-3.2-3.4c0-2.7,1.2-7.5,5.1-7.5
		c1.8,0,2.8,0.7,2.8,2.2c0,2.6-2.8,4.1-4.9,4.4c0,0.3-0.1,0.7-0.1,0.9C71,24.8,71.9,25.2,72.8,25.2z M73.9,16.9
		c-1.2,0-2.2,2.4-2.6,4.5c2,0,3.4-1.7,3.4-3.3C74.6,17.7,74.5,16.9,73.9,16.9z"/>
	<path class="st5" d="M90.2,23.3c-0.1,0.3-0.1,0.5-0.1,0.8c0,0.5,0.2,0.9,0.9,0.9c0.9,0,1.8-1.3,2.3-2.2h1c-1,1.2-2.9,4-4.6,4
		S87,26,87,24.4c0-0.3,0-0.7,0.1-1.1l0.8-3.9c0-0.2,0.1-0.4,0.1-0.6c0-0.8-0.4-1.3-1-1.3c-0.5,0-0.8,0.1-1.2,0.4
		c0.1,0.3,0.1,0.5,0.1,0.8c0,0.2,0,0.3,0,0.5l-1.6,7.6h-3.1l1.6-7.3c0-0.2,0.1-0.4,0.1-0.6c0-0.8-0.4-1.3-1-1.3
		c-0.5,0-0.9,0.2-1.3,0.5l-1.9,8.7h-3.1L77.8,16h3.1l-0.2,1.1c0.9-0.6,1.9-1.1,2.8-1.1c0.8,0,1.7,0.6,2.1,1.4
		c0.9-0.8,2.1-1.4,3.1-1.4c1.2,0,2.5,1.2,2.5,2.7c0,0.2,0,0.3,0,0.5L90.2,23.3z"/>
	<path class="st5" d="M102.4,16l-1.6,7.3c0,0.2-0.1,0.5-0.1,0.7c0,0.5,0.2,0.8,1.1,0.8s2-1.2,2.8-1.9h0.7c-1,1-3.4,3.9-5.1,3.9
		c-1.4,0-2.3-0.5-2.6-1.6C97,26,96,26.9,94.7,26.9c-2.1,0-2.7-1.5-2.7-2.7c0-3.7,1.3-8.1,5.6-8.1c0.5,0,1.1,0.2,1.4,0.5l0.1-0.6
		C99.1,16,102.4,16,102.4,16z M95,23.6c0,1.3,0.7,1.5,1.2,1.5s1-0.5,1.4-1.1c0-0.2,0.1-0.5,0.1-0.7l1.2-5.7
		c-0.3-0.3-0.8-0.4-1.1-0.4C96.3,17.2,95,20.6,95,23.6z"/>
	<path class="st5" d="M108.8,12.6c0,0-0.3,1.5-0.7,3.4h1.3l-0.2,0.9h-1.3c-1.5,6.8-1.5,7-1.5,7.1c0,0.5,0.2,0.8,1.1,0.8
		s2-1.2,2.8-1.9h0.7c-1,1-3.4,3.9-5.1,3.9s-2.7-0.7-2.7-2.3c0-1.1,1.1-5.7,1.5-7.6H104l0.2-0.9h0.7l0.6-3L108.8,12.6z"/>
	<path class="st5" d="M114.3,16l-0.2,1.1c0.8-0.6,1.6-1.1,2.5-1.1c1,0,1.6,0.6,1.6,1.4s-0.6,1.7-1.6,1.7c-1.2,0-0.6-1.4-1.2-1.4
		s-1,0.2-1.5,0.7l-1.8,8.4H109l2.3-10.8H114.3z"/>
	<path class="st5" d="M126.7,16l1,4.7c1.2-1.4,2.2-2.8,2.3-3.8c-0.1,0-0.3,0-0.4,0c-0.8,0-1-0.5-1-1.2s0.7-1.1,1.5-1.1
		c0.6,0,1.1,0.6,1.1,1.7c0,1-1,2.9-3.3,5.4l0.4,1.7c0.2,0.9,0.3,1.4,1.3,1.4c0.9,0,2-1.2,2.8-1.9h0.7c-1,1-3.4,3.9-5.1,3.9
		c-1.7,0-2.2-0.4-2.7-2.5c-1.7,1.4-3.4,2.5-4.8,2.5c-1.7,0-2.7-0.7-2.7-2.4c0-0.3,0-0.7,0.1-1.1l1.5-7.3h3.1l-1.5,7.3
		c0,0.2-0.1,0.6-0.1,0.9c0,0.4,0.1,0.8,0.5,0.8c0.9,0,2.3-0.8,3.7-1.9l-1.6-7.1C123.5,16,126.7,16,126.7,16z M121.6,11.4
		c0.9,0,1.7,0.8,1.7,1.7s-0.8,1.7-1.7,1.7s-1.7-0.8-1.7-1.7S120.7,11.4,121.6,11.4z"/>
</g>
</svg>
